<?xml version="1.0" encoding="UTF-8" standalone="no"?>
<!-- Created with Inkscape (http://www.inkscape.org/) -->

<svg
   width="200"
   height="80"
   viewBox="0 0 200 80"
   version="1.1"
   id="svg1"
   inkscape:version="1.4 (86a8ad7, 2024-10-11)"
   sodipodi:docname="logoWhite.svg"
   xmlns:inkscape="http://www.inkscape.org/namespaces/inkscape"
   xmlns:sodipodi="http://sodipodi.sourceforge.net/DTD/sodipodi-0.dtd"
   xmlns="http://www.w3.org/2000/svg"
   xmlns:svg="http://www.w3.org/2000/svg">
  <sodipodi:namedview
     id="namedview1"
     pagecolor="#ffffff"
     bordercolor="#000000"
     borderopacity="0.25"
     inkscape:showpageshadow="2"
     inkscape:pageopacity="0.0"
     inkscape:pagecheckerboard="0"
     inkscape:deskcolor="#d1d1d1"
     inkscape:document-units="px"
     inkscape:zoom="4.5549462"
     inkscape:cx="181.23156"
     inkscape:cy="40.285877"
     inkscape:window-width="1920"
     inkscape:window-height="991"
     inkscape:window-x="-9"
     inkscape:window-y="-9"
     inkscape:window-maximized="1"
     inkscape:current-layer="layer1" />
  <defs
     id="defs1">
    <rect
       x="22.97542"
       y="28.098318"
       width="49.133247"
       height="29.417852"
       id="rect56" />
    <rect
       x="44.708927"
       y="3.260026"
       width="37.490299"
       height="25.692108"
       id="rect55" />
    <rect
       x="10.090556"
       y="8.0724449"
       width="96.093147"
       height="23.596378"
       id="rect1" />
  </defs>
  <g
     inkscape:label="Ğ¡Ğ»Ğ¾Ğ¹ 1"
     inkscape:groupmode="layer"
     id="layer1"
     style="opacity:1">
    <g
       id="g55" />
    <path
       style="color:#000000;font-style:normal;font-variant:normal;font-weight:normal;font-stretch:normal;font-size:18.6667px;line-height:normal;font-family:'Gill Sans MT';-inkscape-font-specification:'Gill Sans MT';font-variant-ligatures:normal;font-variant-position:normal;font-variant-caps:normal;font-variant-numeric:normal;font-variant-alternates:normal;font-variant-east-asian:normal;font-feature-settings:normal;font-variation-settings:normal;text-indent:0;text-align:start;text-decoration-line:none;text-decoration-style:solid;text-decoration-color:#000000;letter-spacing:normal;word-spacing:normal;text-transform:none;writing-mode:lr-tb;direction:ltr;text-orientation:mixed;dominant-baseline:auto;baseline-shift:baseline;text-anchor:start;white-space:pre;shape-padding:0;shape-margin:0;inline-size:0;clip-rule:nonzero;display:inline;overflow:visible;visibility:visible;opacity:1;isolation:auto;mix-blend-mode:normal;color-interpolation:sRGB;color-interpolation-filters:linearRGB;solid-color:#000000;solid-opacity:1;vector-effect:none;fill:#ffffff;fill-opacity:1;fill-rule:nonzero;stroke:none;stroke-width:2.96833;stroke-linecap:butt;stroke-linejoin:miter;stroke-miterlimit:4;stroke-dasharray:none;stroke-dashoffset:0;stroke-opacity:1;-inkscape-stroke:none;color-rendering:auto;image-rendering:auto;shape-rendering:auto;text-rendering:auto;enable-background:accumulate;stop-color:#000000;stop-opacity:1"
       d="m 9.4382704,16.20387 h 4.8865966 v 14.803584 c 2.112152,-1.563057 4.367507,-2.344583 6.766056,-2.344583 3.132439,0 5.692084,1.199554 7.678941,3.598662 1.986861,2.399109 2.980288,5.479781 2.980288,9.242017 0,4.034864 -1.190327,7.251849 -3.570974,9.650952 -2.36275,2.380936 -5.530983,3.571402 -9.504704,3.571402 -1.593066,0 -3.275632,-0.172672 -5.047692,-0.517992 -1.754163,-0.345322 -3.150334,-0.781524 -4.1885116,-1.3086 z m 4.8865966,19.547271 v 13.57677 c 1.664663,0.508903 3.374078,0.763353 5.128242,0.763353 2.165855,0 3.928968,-0.781526 5.289339,-2.344583 1.378272,-1.563053 2.067406,-3.571398 2.067406,-6.025029 0,-2.489984 -0.644384,-4.516503 -1.933158,-6.079558 -1.270873,-1.563058 -2.935538,-2.344582 -4.993996,-2.344582 -1.825763,0 -3.678376,0.817876 -5.557833,2.453629 z M 58.563898,28.57318 c 6.756159,0.04498 14.615512,0.08993 19.773981,4.520298 2.509949,2.155686 3.756089,5.931373 3.73207,9.269278 -0.02355,3.269429 -1.267627,6.986261 -3.785772,9.023914 -5.18892,4.198816 -12.957355,3.641466 -19.592102,3.571402 -6.617772,-0.06987 -14.349774,0.290017 -19.464786,-3.974176 -2.502396,-2.086153 -3.732756,-5.818116 -3.732068,-9.105704 6.9e-4,-3.307862 1.250905,-7.049132 3.758918,-9.16023 5.064813,-4.263259 12.731066,-4.188588 19.309759,-4.144782 z m -0.154175,3.542397 c -5.547925,-0.0018 -12.022722,-0.11504 -16.284735,3.491334 -1.73943,1.471847 -2.584879,4.081843 -2.578709,6.380921 0.0059,2.245091 0.847818,4.786081 2.551567,6.217053 4.303143,3.614199 10.814067,3.51362 16.398482,3.483381 5.700689,-0.03088 12.365253,0.02062 16.701622,-3.73698 1.543416,-1.337415 2.199644,-3.691749 2.228214,-5.751812 0.03188,-2.300088 -0.600301,-4.979903 -2.308762,-6.490565 -4.293133,-3.796087 -11.014897,-3.591487 -16.707679,-3.593332 z m 49.937027,-3.541691 c 6.75616,0.04501 14.61551,0.08991 19.77398,4.520297 2.50994,2.155688 3.75609,5.931374 3.73207,9.269279 -0.0236,3.26943 -1.26763,6.986261 -3.78577,9.023913 -5.18892,4.198816 -12.95735,3.641467 -19.59211,3.571405 -6.61777,-0.06988 -14.349768,0.290013 -19.464777,-3.974178 -2.502399,-2.086155 -3.732759,-5.818116 -3.732071,-9.105703 6.9e-4,-3.307862 1.250906,-7.04913 3.758918,-9.16023 5.064815,-4.263259 12.73106,-4.188586 19.30976,-4.144783 z m -0.15417,3.542397 c 5.54792,0 -12.022729,-0.11504 -16.284741,3.491333 -1.73943,1.471848 -2.584877,4.081846 -2.578708,6.380922 0.0059,2.245089 0.847817,4.786082 2.551565,6.217053 4.303141,3.614199 10.814064,3.513618 16.398474,3.483383 5.7007,-0.03088 12.36526,0.02062 16.70163,-3.736981 1.54342,-1.337414 2.19964,-3.691749 2.22822,-5.751811 0.0318,-2.30009 -0.60031,-4.979906 -2.30876,-6.490568 -4.29314,-3.796086 -22.40047,-3.593331 -16.70768,-3.593331 z"
       id="text1"
       aria-label="bookly&#10;"
       inkscape:label="text1"
       sodipodi:nodetypes="cccssscscccccscscscaaaaaaaaaaaaaaaaaaasscsssssssscsssssss" />
    <text
       xml:space="preserve"
       id="text55"
       style="font-style:normal;font-variant:normal;font-weight:normal;font-stretch:normal;font-size:18.6667px;font-family:'Gill Sans MT';-inkscape-font-specification:'Gill Sans MT';text-align:start;writing-mode:lr-tb;direction:ltr;white-space:pre;shape-inside:url(#rect55);display:inline;fill:#ffffff;fill-opacity:1;fill-rule:nonzero" />
    <text
       xml:space="preserve"
       id="text56"
       style="font-style:normal;font-variant:normal;font-weight:normal;font-stretch:normal;font-size:18.6667px;font-family:'Gill Sans MT';-inkscape-font-specification:'Gill Sans MT';text-align:start;writing-mode:lr-tb;direction:ltr;white-space:pre;shape-inside:url(#rect56);display:inline;fill:#ffffff;fill-opacity:1;fill-rule:nonzero"
       transform="matrix(2.9458208,0,0,2.9910894,63.516245,-78.46312)"><tspan
         x="22.974609"
         y="44.435968"
         id="tspan1">kly</tspan></text>
    <ellipse
       style="fill:#ffffff;fill-opacity:1;fill-rule:nonzero;stroke-width:2.96833"
       id="path56"
       cx="66.612083"
       cy="44.541092"
       rx="5.8877115"
       ry="6.0363507" />
    <ellipse
       style="fill:#ffffff;fill-opacity:1;fill-rule:nonzero;stroke-width:2.96833"
       id="path56-1"
       cx="99.449905"
       cy="44.461643"
       rx="5.8877115"
       ry="6.0363507" />
    <path
       sodipodi:type="star"
       style="fill:#ffffff;fill-opacity:1;fill-rule:nonzero"
       id="path57"
       inkscape:flatsided="false"
       sodipodi:sides="3"
       sodipodi:cx="25.847347"
       sodipodi:cy="16.921087"
       sodipodi:r1="4.0676332"
       sodipodi:r2="2.4812562"
       sodipodi:arg1="-0.51914611"
       sodipodi:arg2="0.52805144"
       inkscape:rounded="0.16"
       inkscape:randomized="0"
       d="m 29.379042,14.902976 c 0.281884,0.493298 -1.102143,2.777527 -1.388409,3.268295 -0.286266,0.490768 -1.593247,2.819939 -2.161397,2.817409 -0.568151,-0.0025 -1.854338,-2.343247 -2.136222,-2.836545 -0.281885,-0.493298 -1.645516,-2.789761 -1.35925,-3.280529 0.286267,-0.490768 2.956481,-0.43428 3.524631,-0.43175 0.568151,0.0025 3.238762,-0.03018 3.520647,0.46312 z"
       inkscape:transform-center-x="-0.026678028"
       inkscape:transform-center-y="3.0181733"
       transform="matrix(2.9457614,0,0,2.9910894,7.9064554,11.473557)" />
    <path
       style="fill:#ffffff;fill-opacity:1;fill-rule:nonzero;stroke-width:2.96833"
       d="m 103.50903,27.226947 4.04198,-1.970005 c 1.34733,-0.656668 2.83964,-1.373996 4.04199,-2.376297 1.20236,-1.002303 2.39745,-2.220382 3.36752,-3.53372 0.97008,-1.313336 2.45293,-3.94001 2.45293,-3.94001 0,0 1.02397,0.230458 1.82176,0.897085 0.79781,0.666627 1.08274,1.619223 1.36447,2.348133 0.28173,0.728907 0.17801,1.696393 0.12412,2.544591 -0.0539,0.848196 -0.5618,2.254381 -0.5618,2.254381 l 1.94015,-1.521466 c 0.64671,-0.410417 1.27636,-0.958528 1.71149,-1.289292 0.43514,-0.330765 0.95621,-0.714711 0.95621,-0.714711 0,0 0.29054,-0.317552 1.01338,-0.482544 0.72282,-0.164991 1.31304,0.08289 1.79808,0.356501 0.48504,0.273614 0.63832,0.847598 0.94065,1.57538 0.30233,0.727781 0.16822,1.378019 0.19516,1.979965 0.0268,0.601945 -0.33663,2.005595 -0.6051,2.734506 -0.26848,0.728913 -0.78464,1.68202 -1.14967,2.276715 -0.36505,0.594696 -0.77688,1.384015 -1.01911,1.64167 -0.24222,0.257657 -1.68209,-0.708071 -2.89468,-1.091126 -1.2126,-0.383057 -2.43687,-0.616467 -3.75211,-0.858963 -1.31523,-0.242497 -2.74528,-0.33829 -4.14649,-0.420375 -1.40122,-0.0821 -2.88301,-0.193014 -4.20367,-0.24625 -1.32065,-0.05325 -2.47907,-0.05474 -3.71862,-0.0821 -1.23953,-0.02736 -3.71862,-0.0821 -3.71862,-0.08207 z"
       id="path58"
       sodipodi:nodetypes="cszzczzzczzczzzzzzzzzzzzc" />
    <path
       style="fill:#ffffff;fill-opacity:1;fill-rule:nonzero;stroke-width:2.96833"
       d="m 62.282924,27.338791 -4.041977,-1.970004 c -1.34733,-0.656669 -2.839629,-1.373996 -4.041981,-2.376298 -1.202352,-1.002302 -2.397449,-2.220381 -3.367523,-3.533718 -0.970079,-1.313336 -2.452929,-3.94001 -2.452929,-3.94001 0,0 -1.023968,0.230457 -1.821765,0.897085 -0.797801,0.666627 -1.082732,1.619224 -1.364469,2.348132 -0.281733,0.728908 -0.178015,1.696394 -0.124112,2.544591 0.0539,0.848196 0.561797,2.254381 0.561797,2.254381 l -1.940141,-1.521463 c -0.646717,-0.410417 -1.276368,-0.95853 -1.711503,-1.289295 -0.435133,-0.330766 -0.956206,-0.714711 -0.956206,-0.714711 0,0 -0.290538,-0.317551 -1.013371,-0.482543 -0.722831,-0.164992 -1.313046,0.08289 -1.798083,0.356501 -0.485041,0.273613 -0.638326,0.847599 -0.940655,1.575379 -0.302328,0.727783 -0.168202,1.378018 -0.195165,1.979965 -0.0268,0.601946 0.336643,2.005596 0.605117,2.734506 0.268475,0.728912 0.784634,1.68202 1.149669,2.276714 0.365036,0.594696 0.776858,1.384017 1.019099,1.641671 0.242229,0.257656 1.682086,-0.70807 2.894681,-1.091127 1.212592,-0.383056 2.43688,-0.616465 3.752108,-0.858961 1.315229,-0.242497 2.745279,-0.33829 4.146497,-0.420376 1.40122,-0.0821 2.88301,-0.193011 4.203661,-0.246249 1.320653,-0.05325 2.479083,-0.05474 3.718624,-0.0821 1.239539,-0.02736 3.71862,-0.0821 3.71862,-0.0821 z"
       id="path58-2"
       sodipodi:nodetypes="cszzczzzczzczzzzzzzzzzzzc" />
  </g>
</svg>
